<svg version="1.1" id="Layer_1" xmlns="http://www.w3.org/2000/svg" xmlns:xlink="http://www.w3.org/1999/xlink" x="0px" y="0px"
	 width="100%" viewBox="0 0 256 256" enable-background="new 0 0 256 256" xml:space="preserve">
<path fill="#000000" opacity="1.000000" stroke="none" 
	d="
M257.000000,138.000000 
	C257.000000,177.630722 257.000000,217.261429 257.000000,256.946075 
	C171.779984,256.946075 86.559937,256.946075 1.000000,256.946075 
	C1.000000,221.313156 1.000000,185.625244 1.369348,149.462112 
	C2.549664,150.736694 3.429443,152.458282 4.160372,154.240891 
	C8.699663,165.311432 15.758260,174.031219 26.485620,179.841110 
	C40.379742,187.366089 54.721233,188.103714 69.662872,184.023392 
	C70.865059,183.695084 72.889587,183.729340 73.551697,184.470657 
	C83.004929,195.054764 91.512817,206.395615 94.204910,220.665268 
	C95.911598,229.711700 96.253136,239.029282 96.970650,248.243652 
	C97.401932,253.782104 98.327354,254.970032 103.820435,254.978790 
	C120.141060,255.004807 136.461853,255.017670 152.782394,254.968979 
	C158.838776,254.950928 160.776672,252.892059 161.004364,246.934158 
	C161.238419,240.809540 161.557480,234.686142 161.965317,228.570618 
	C162.982132,213.323395 167.152557,198.983246 174.178604,185.400085 
	C176.027252,181.826157 177.910690,181.291367 181.612793,182.720795 
	C196.339996,188.407059 211.081055,188.128525 225.350052,181.219696 
	C242.095718,173.111710 251.312515,159.220657 254.994370,141.281113 
	C255.236786,140.099945 256.312103,139.089737 257.000000,138.000000 
z"/>
<path fill="#43484B" opacity="1.000000" stroke="none" 
	d="
M257.000000,137.532059 
	C256.312103,139.089737 255.236786,140.099945 254.994370,141.281113 
	C251.312515,159.220657 242.095718,173.111710 225.350052,181.219696 
	C211.081055,188.128525 196.339996,188.407059 181.612793,182.720795 
	C177.910690,181.291367 176.027252,181.826157 174.178604,185.400085 
	C167.152557,198.983246 162.982132,213.323395 161.965317,228.570618 
	C161.557480,234.686142 161.238419,240.809540 161.004364,246.934158 
	C160.776672,252.892059 158.838776,254.950928 152.782394,254.968979 
	C136.461853,255.017670 120.141060,255.004807 103.820435,254.978790 
	C98.327354,254.970032 97.401932,253.782104 96.970650,248.243652 
	C96.253136,239.029282 95.911598,229.711700 94.204910,220.665268 
	C91.512817,206.395615 83.004929,195.054764 73.551697,184.470657 
	C72.889587,183.729340 70.865059,183.695084 69.662872,184.023392 
	C54.721233,188.103714 40.379742,187.366089 26.485620,179.841110 
	C15.758260,174.031219 8.699663,165.311432 4.160372,154.240891 
	C3.429443,152.458282 2.549664,150.736694 1.369348,148.993454 
	C1.000000,142.312363 1.000000,135.624710 1.367676,128.476471 
	C2.440655,126.754761 3.315774,125.558250 3.823957,124.222176 
	C7.366917,114.907280 12.198003,106.522896 20.745157,100.875946 
	C24.180933,98.605995 27.791775,96.601013 31.436340,94.407173 
	C18.198271,74.186829 17.448648,54.150482 35.676376,37.270096 
	C55.629375,18.791967 77.756737,20.414080 98.554871,34.611965 
	C103.857559,28.397167 108.356163,21.766533 114.149719,16.583342 
	C133.340790,-0.585926 162.540207,-1.711302 183.586060,13.340023 
	C200.367966,25.341904 209.095062,46.351372 202.719711,67.170494 
	C201.155899,72.277229 204.167328,72.409271 207.326965,72.969032 
	C229.731522,76.938248 249.621399,93.262726 254.991486,116.720848 
	C255.262589,117.905098 256.312622,118.911041 257.000000,120.000000 
	C257.000000,125.688042 257.000000,131.376083 257.000000,137.532059 
M90.068123,169.137207 
	C87.510101,172.145889 84.952072,175.154572 82.091187,178.519485 
	C99.268196,196.344315 107.975594,218.754547 107.833878,244.626724 
	C113.396622,244.626724 118.667671,244.626724 124.868240,244.796066 
	C133.147659,244.796066 141.427094,244.796066 150.149368,244.796066 
	C151.292191,219.830429 154.732101,196.182343 168.354462,175.375381 
	C165.150772,172.697357 162.363632,170.367508 159.326279,167.828506 
	C153.176331,178.727036 147.173676,189.437515 141.097626,200.106186 
	C137.141800,207.052017 133.236526,207.149368 129.060455,200.348770 
	C125.502808,194.555237 122.289154,188.546173 118.612083,182.832764 
	C117.475143,181.066177 115.488899,179.644150 113.595200,178.603592 
	C107.268448,175.127106 100.843155,171.822052 94.360443,168.645569 
	C93.357948,168.154358 91.856445,168.681580 90.068123,169.137207 
M59.901215,175.621628 
	C71.495308,173.418320 80.422279,167.541428 86.242836,157.042252 
	C88.960243,152.140549 92.248779,151.988846 96.140434,156.105682 
	C96.711800,156.710114 97.215111,157.378265 97.766029,158.002731 
	C113.073563,175.354263 137.281250,172.116592 147.313721,151.377533 
	C149.755814,146.329269 153.024551,145.856644 156.971924,149.967239 
	C161.691910,154.882416 166.027710,160.258423 171.220779,164.610443 
	C187.708740,178.428085 209.277298,179.823135 226.386749,168.672791 
	C241.522476,158.808746 249.298828,135.680115 243.877594,116.651108 
	C238.254166,96.912422 219.106873,82.868660 196.785049,82.110672 
	C187.470200,81.794357 186.055634,79.449623 190.198593,71.252243 
	C194.602478,62.538540 195.563995,53.349197 192.827774,44.075245 
	C187.275208,25.255737 169.661972,12.788197 149.844299,13.193839 
	C129.431915,13.611655 113.271645,25.963491 107.554497,45.114349 
	C106.798714,47.646008 104.802841,50.853783 102.651627,51.576473 
	C101.060524,52.110996 97.843231,49.518787 96.111572,47.623951 
	C88.660454,39.470676 79.840515,34.611389 67.605057,34.745564 
	C64.004555,35.243340 60.302334,35.364182 56.821003,36.303600 
	C41.054733,40.558052 31.174404,55.226055 32.889019,71.324203 
	C33.784473,79.731461 38.100018,86.118057 44.133297,91.727043 
	C49.127125,96.369652 48.157261,99.985275 41.739391,102.237648 
	C38.468594,103.385551 35.109344,104.429283 32.057999,106.030632 
	C12.233764,116.434372 5.726102,139.580963 17.995501,158.192780 
	C27.642050,172.825943 42.152988,177.585144 59.901215,175.621628 
M140.471237,180.980682 
	C141.781845,178.515869 143.092453,176.051056 144.403061,173.586258 
	C144.041595,173.370071 143.680130,173.153885 143.318665,172.937698 
	C138.377991,175.001862 133.437332,177.066025 128.181213,179.261993 
	C130.350922,182.852966 132.440598,186.311447 134.966965,190.492676 
	C136.977966,186.999115 138.530167,184.302567 140.471237,180.980682 
z"/>
<path fill="#000000" opacity="1.000000" stroke="none" 
	d="
M257.000000,119.531342 
	C256.312622,118.911041 255.262589,117.905098 254.991486,116.720848 
	C249.621399,93.262726 229.731522,76.938248 207.326965,72.969032 
	C204.167328,72.409271 201.155899,72.277229 202.719711,67.170494 
	C209.095062,46.351372 200.367966,25.341904 183.586060,13.340023 
	C162.540207,-1.711302 133.340790,-0.585926 114.149719,16.583342 
	C108.356163,21.766533 103.857559,28.397167 98.554871,34.611965 
	C77.756737,20.414080 55.629375,18.791967 35.676376,37.270096 
	C17.448648,54.150482 18.198271,74.186829 31.436340,94.407173 
	C27.791775,96.601013 24.180933,98.605995 20.745157,100.875946 
	C12.198003,106.522896 7.366917,114.907280 3.823957,124.222176 
	C3.315774,125.558250 2.440655,126.754761 1.367676,128.007935 
	C1.000000,85.703575 1.000000,43.407154 1.000000,1.055365 
	C86.221992,1.055365 171.444031,1.055365 257.000000,1.055365 
	C257.000000,40.353600 257.000000,79.708138 257.000000,119.531342 
z"/>
<path fill="#7DC5EA" opacity="1.000000" stroke="none" 
	d="
M68.557549,34.926067 
	C79.840515,34.611389 88.660454,39.470676 96.111572,47.623951 
	C97.843231,49.518787 101.060524,52.110996 102.651627,51.576473 
	C104.802841,50.853783 106.798714,47.646008 107.554497,45.114349 
	C113.271645,25.963491 129.431915,13.611655 149.844299,13.193839 
	C169.661972,12.788197 187.275208,25.255737 192.827774,44.075245 
	C195.563995,53.349197 194.602478,62.538540 190.198593,71.252243 
	C186.055634,79.449623 187.470200,81.794357 196.785049,82.110672 
	C219.106873,82.868660 238.254166,96.912422 243.877594,116.651108 
	C249.298828,135.680115 241.522476,158.808746 226.386749,168.672791 
	C209.277298,179.823135 187.708740,178.428085 171.220779,164.610443 
	C166.027710,160.258423 161.691910,154.882416 156.971924,149.967239 
	C153.024551,145.856644 149.755814,146.329269 147.313721,151.377533 
	C137.281250,172.116592 113.073563,175.354263 97.766029,158.002731 
	C97.215111,157.378265 96.711800,156.710114 96.140434,156.105682 
	C92.248779,151.988846 88.960243,152.140549 86.242836,157.042252 
	C80.422279,167.541428 71.495308,173.418320 59.216721,175.483795 
	C49.113228,171.639175 41.055672,166.337555 37.137001,156.456558 
	C28.328535,134.245865 38.049828,106.947212 63.074127,99.770103 
	C64.100525,99.475731 65.023682,98.821365 67.179352,97.741272 
	C64.812210,95.740227 62.598354,94.556854 61.388615,92.714233 
	C58.055832,87.637909 54.090336,82.625229 52.268528,76.976692 
	C47.419361,61.941803 53.902191,46.269817 68.557549,34.926067 
z"/>
<path fill="#FBFCFD" opacity="1.000000" stroke="none" 
	d="
M68.081299,34.835815 
	C53.902191,46.269817 47.419361,61.941803 52.268528,76.976692 
	C54.090336,82.625229 58.055832,87.637909 61.388615,92.714233 
	C62.598354,94.556854 64.812210,95.740227 67.179352,97.741272 
	C65.023682,98.821365 64.100525,99.475731 63.074127,99.770103 
	C38.049828,106.947212 28.328535,134.245865 37.137001,156.456558 
	C41.055672,166.337555 49.113228,171.639175 58.851303,175.494049 
	C42.152988,177.585144 27.642050,172.825943 17.995501,158.192780 
	C5.726102,139.580963 12.233764,116.434372 32.057999,106.030632 
	C35.109344,104.429283 38.468594,103.385551 41.739391,102.237648 
	C48.157261,99.985275 49.127125,96.369652 44.133297,91.727043 
	C38.100018,86.118057 33.784473,79.731461 32.889019,71.324203 
	C31.174404,55.226055 41.054733,40.558052 56.821003,36.303600 
	C60.302334,35.364182 64.004555,35.243340 68.081299,34.835815 
z"/>
<path fill="#E3E9DB" opacity="1.000000" stroke="none" 
	d="
M90.585709,168.737808 
	C91.856445,168.681580 93.357948,168.154358 94.360443,168.645569 
	C100.843155,171.822052 107.268448,175.127106 113.595200,178.603592 
	C115.488899,179.644150 117.475143,181.066177 118.612083,182.832764 
	C122.289154,188.546173 125.502808,194.555237 129.060455,200.348770 
	C133.236526,207.149368 137.141800,207.052017 141.097626,200.106186 
	C147.173676,189.437515 153.176331,178.727036 159.326279,167.828506 
	C162.363632,170.367508 165.150772,172.697357 168.354462,175.375381 
	C154.732101,196.182343 151.292191,219.830429 150.149368,244.796066 
	C141.427094,244.796066 133.147659,244.796066 124.416824,244.266693 
	C126.121574,212.825790 113.224983,188.613739 90.585709,168.737808 
z"/>
<path fill="#FDFDFD" opacity="1.000000" stroke="none" 
	d="
M90.326920,168.937500 
	C113.224983,188.613739 126.121574,212.825790 123.952072,244.182022 
	C118.667671,244.626724 113.396622,244.626724 107.833878,244.626724 
	C107.975594,218.754547 99.268196,196.344315 82.091187,178.519485 
	C84.952072,175.154572 87.510101,172.145889 90.326920,168.937500 
z"/>
<path fill="#D9DFD2" opacity="1.000000" stroke="none" 
	d="
M140.276794,181.293365 
	C138.530167,184.302567 136.977966,186.999115 134.966965,190.492676 
	C132.440598,186.311447 130.350922,182.852966 128.181213,179.261993 
	C133.437332,177.066025 138.377991,175.001862 143.318665,172.937698 
	C143.680130,173.153885 144.041595,173.370071 144.403061,173.586258 
	C143.092453,176.051056 141.781845,178.515869 140.276794,181.293365 
z"/>
</svg>